<svg xmlns="http://www.w3.org/2000/svg" xmlns:xlink="http://www.w3.org/1999/xlink"><defs><style>
    .sprite-symbol-usage {display: none;}
    .sprite-symbol-usage:target {display: inline;}
  </style><symbol viewBox="0 0 512 512" id="facebook_8f397329f0a64667cb41bc62af87f73d">

<g id="facebook_8f397329f0a64667cb41bc62af87f73d_7935ec95c421cee6d86eb22ecd11b7e3">

<path style="display: inline;" d="M283.122,122.174c0,5.24,0,22.319,0,46.583h83.424l-9.045,74.367h-74.379
		c0,114.688,0,268.375,0,268.375h-98.726c0,0,0-151.653,0-268.375h-51.443v-74.367h51.443c0-29.492,0-50.463,0-56.302
		c0-27.82-2.096-41.02,9.725-62.578C205.948,28.32,239.308-0.174,297.007,0.512c57.713,0.711,82.04,6.263,82.04,6.263
		l-12.501,79.257c0,0-36.853-9.731-54.942-6.263C293.539,83.238,283.122,94.366,283.122,122.174z">

</path>

</g>

</symbol><symbol viewBox="0 0 24 24" id="github_4f317f4cadb8fc49c6dbc40258f56775">

<g data-name="Layer 2">

<rect width="24" height="24" opacity="0" />

<path d="M16.24 22a1 1 0 0 1-1-1v-2.6a2.15 2.15 0 0 0-.54-1.66 1 1 0 0 1 .61-1.67C17.75 14.78 20 14 20 9.77a4 4 0 0 0-.67-2.22 2.75 2.75 0 0 1-.41-2.06 3.71 3.71 0 0 0 0-1.41 7.65 7.65 0 0 0-2.09 1.09 1 1 0 0 1-.84.15 10.15 10.15 0 0 0-5.52 0 1 1 0 0 1-.84-.15 7.4 7.4 0 0 0-2.11-1.09 3.52 3.52 0 0 0 0 1.41 2.84 2.84 0 0 1-.43 2.08 4.07 4.07 0 0 0-.67 2.23c0 3.89 1.88 4.93 4.7 5.29a1 1 0 0 1 .82.66 1 1 0 0 1-.21 1 2.06 2.06 0 0 0-.55 1.56V21a1 1 0 0 1-2 0v-.57a6 6 0 0 1-5.27-2.09 3.9 3.9 0 0 0-1.16-.88 1 1 0 1 1 .5-1.94 4.93 4.93 0 0 1 2 1.36c1 1 2 1.88 3.9 1.52a3.89 3.89 0 0 1 .23-1.58c-2.06-.52-5-2-5-7a6 6 0 0 1 1-3.33.85.85 0 0 0 .13-.62 5.69 5.69 0 0 1 .33-3.21 1 1 0 0 1 .63-.57c.34-.1 1.56-.3 3.87 1.2a12.16 12.16 0 0 1 5.69 0c2.31-1.5 3.53-1.31 3.86-1.2a1 1 0 0 1 .63.57 5.71 5.71 0 0 1 .33 3.22.75.75 0 0 0 .11.57 6 6 0 0 1 1 3.34c0 5.07-2.92 6.54-5 7a4.28 4.28 0 0 1 .22 1.67V21a1 1 0 0 1-.94 1z"></path>

</g>

</symbol><symbol viewBox="0 0 24 24" id="instagram_8bbfc7f0978ec72351fbc87f9c3fd0a3">
<path fill-rule="evenodd" clip-rule="evenodd" d="M12 18C15.3137 18 18 15.3137 18 12C18 8.68629 15.3137 6 12 6C8.68629 6 6 8.68629 6 12C6 15.3137 8.68629 18 12 18ZM12 16C14.2091 16 16 14.2091 16 12C16 9.79086 14.2091 8 12 8C9.79086 8 8 9.79086 8 12C8 14.2091 9.79086 16 12 16Z"></path>
<path d="M18 5C17.4477 5 17 5.44772 17 6C17 6.55228 17.4477 7 18 7C18.5523 7 19 6.55228 19 6C19 5.44772 18.5523 5 18 5Z"></path>
<path fill-rule="evenodd" clip-rule="evenodd" d="M1.65396 4.27606C1 5.55953 1 7.23969 1 10.6V13.4C1 16.7603 1 18.4405 1.65396 19.7239C2.2292 20.8529 3.14708 21.7708 4.27606 22.346C5.55953 23 7.23969 23 10.6 23H13.4C16.7603 23 18.4405 23 19.7239 22.346C20.8529 21.7708 21.7708 20.8529 22.346 19.7239C23 18.4405 23 16.7603 23 13.4V10.6C23 7.23969 23 5.55953 22.346 4.27606C21.7708 3.14708 20.8529 2.2292 19.7239 1.65396C18.4405 1 16.7603 1 13.4 1H10.6C7.23969 1 5.55953 1 4.27606 1.65396C3.14708 2.2292 2.2292 3.14708 1.65396 4.27606ZM13.4 3H10.6C8.88684 3 7.72225 3.00156 6.82208 3.0751C5.94524 3.14674 5.49684 3.27659 5.18404 3.43597C4.43139 3.81947 3.81947 4.43139 3.43597 5.18404C3.27659 5.49684 3.14674 5.94524 3.0751 6.82208C3.00156 7.72225 3 8.88684 3 10.6V13.4C3 15.1132 3.00156 16.2777 3.0751 17.1779C3.14674 18.0548 3.27659 18.5032 3.43597 18.816C3.81947 19.5686 4.43139 20.1805 5.18404 20.564C5.49684 20.7234 5.94524 20.8533 6.82208 20.9249C7.72225 20.9984 8.88684 21 10.6 21H13.4C15.1132 21 16.2777 20.9984 17.1779 20.9249C18.0548 20.8533 18.5032 20.7234 18.816 20.564C19.5686 20.1805 20.1805 19.5686 20.564 18.816C20.7234 18.5032 20.8533 18.0548 20.9249 17.1779C20.9984 16.2777 21 15.1132 21 13.4V10.6C21 8.88684 20.9984 7.72225 20.9249 6.82208C20.8533 5.94524 20.7234 5.49684 20.564 5.18404C20.1805 4.43139 19.5686 3.81947 18.816 3.43597C18.5032 3.27659 18.0548 3.14674 17.1779 3.0751C16.2777 3.00156 15.1132 3 13.4 3Z"></path>
</symbol><symbol viewBox="0 -0.5 25 25" id="linkedin_79f037cfa16f0c4f9ac7c966b062bf1c"><path d="m5.706 7.798v16.202h-5.395v-16.202zm.343-5.002c.001.029.002.063.002.098 0 .749-.318 1.423-.826 1.895l-.002.001c-.545.498-1.274.803-2.075.803-.049 0-.099-.001-.148-.003h.007-.033c-.041.002-.089.003-.137.003-.784 0-1.496-.306-2.025-.804l.001.001c-.504-.488-.816-1.17-.816-1.925 0-.024 0-.048.001-.073v.004c-.001-.021-.001-.045-.001-.069 0-.762.324-1.448.841-1.929l.002-.001c.544-.495 1.271-.799 2.068-.799.046 0 .091.001.137.003h-.006c.043-.002.092-.003.143-.003.785 0 1.5.303 2.034.798l-.002-.002c.515.497.835 1.193.835 1.964v.042-.002zm19.062 11.92v9.284h-5.378v-8.665c.005-.079.007-.171.007-.263 0-.896-.249-1.733-.682-2.447l.012.021c-.427-.596-1.117-.979-1.896-.979-.06 0-.12.002-.18.007h.008c-.027-.001-.058-.002-.089-.002-.62 0-1.19.213-1.641.57l.006-.004c-.453.367-.808.836-1.032 1.375l-.008.023c-.116.355-.182.763-.182 1.187 0 .048.001.096.003.144v-.007 9.042h-5.378q.033-6.523.033-10.578t-.016-4.839l-.016-.785h5.378v2.354h-.033c.214-.345.435-.644.678-.924l-.008.009c.281-.309.583-.588.908-.838l.016-.012c.404-.311.878-.555 1.392-.704l.03-.007c.538-.161 1.157-.254 1.797-.254h.079-.004c.071-.003.154-.005.237-.005 1.681 0 3.195.714 4.256 1.856l.003.004q1.702 1.856 1.702 5.436z"></path></symbol><symbol viewBox="0 0 24 24" id="mail_500d560038abca9ccf05704093d83b10">
<path fill-rule="evenodd" clip-rule="evenodd" d="M20 4C21.6569 4 23 5.34315 23 7V17C23 18.6569 21.6569 20 20 20H4C2.34315 20 1 18.6569 1 17V7C1 5.34315 2.34315 4 4 4H20ZM19.2529 6H4.74718L11.3804 11.2367C11.7437 11.5236 12.2563 11.5236 12.6197 11.2367L19.2529 6ZM3 7.1688V17C3 17.5523 3.44772 18 4 18H20C20.5523 18 21 17.5523 21 17V7.16882L13.8589 12.8065C12.769 13.667 11.231 13.667 10.1411 12.8065L3 7.1688Z"></path>
</symbol><symbol viewBox="0 0 24 24" id="telegram_8959b7cd1bf45269d7a024acd2401cff">
<path fill-rule="evenodd" clip-rule="evenodd" d="M23.1117 4.49449C23.4296 2.94472 21.9074 1.65683 20.4317 2.227L2.3425 9.21601C0.694517 9.85273 0.621087 12.1572 2.22518 12.8975L6.1645 14.7157L8.03849 21.2746C8.13583 21.6153 8.40618 21.8791 8.74917 21.968C9.09216 22.0568 9.45658 21.9576 9.70712 21.707L12.5938 18.8203L16.6375 21.8531C17.8113 22.7334 19.5019 22.0922 19.7967 20.6549L23.1117 4.49449ZM3.0633 11.0816L21.1525 4.0926L17.8375 20.2531L13.1 16.6999C12.7019 16.4013 12.1448 16.4409 11.7929 16.7928L10.5565 18.0292L10.928 15.9861L18.2071 8.70703C18.5614 8.35278 18.5988 7.79106 18.2947 7.39293C17.9906 6.99479 17.4389 6.88312 17.0039 7.13168L6.95124 12.876L3.0633 11.0816ZM8.17695 14.4791L8.78333 16.6015L9.01614 15.321C9.05253 15.1209 9.14908 14.9366 9.29291 14.7928L11.5128 12.573L8.17695 14.4791Z"></path>
</symbol><symbol viewBox="0 0 24 24" id="whatsapp_9167ce48f86da3a46689650d8e7047f0">
<path d="M6.014 8.00613C6.12827 7.1024 7.30277 5.87414 8.23488 6.01043L8.23339 6.00894C9.14051 6.18132 9.85859 7.74261 10.2635 8.44465C10.5504 8.95402 10.3641 9.4701 10.0965 9.68787C9.7355 9.97883 9.17099 10.3803 9.28943 10.7834C9.5 11.5 12 14 13.2296 14.7107C13.695 14.9797 14.0325 14.2702 14.3207 13.9067C14.5301 13.6271 15.0466 13.46 15.5548 13.736C16.3138 14.178 17.0288 14.6917 17.69 15.27C18.0202 15.546 18.0977 15.9539 17.8689 16.385C17.4659 17.1443 16.3003 18.1456 15.4542 17.9421C13.9764 17.5868 8 15.27 6.08033 8.55801C5.97237 8.24048 5.99955 8.12044 6.014 8.00613Z"></path>
<path fill-rule="evenodd" clip-rule="evenodd" d="M12 23C10.7764 23 10.0994 22.8687 9 22.5L6.89443 23.5528C5.56462 24.2177 4 23.2507 4 21.7639V19.5C1.84655 17.492 1 15.1767 1 12C1 5.92487 5.92487 1 12 1C18.0751 1 23 5.92487 23 12C23 18.0751 18.0751 23 12 23ZM6 18.6303L5.36395 18.0372C3.69087 16.4772 3 14.7331 3 12C3 7.02944 7.02944 3 12 3C16.9706 3 21 7.02944 21 12C21 16.9706 16.9706 21 12 21C11.0143 21 10.552 20.911 9.63595 20.6038L8.84847 20.3397L6 21.7639V18.6303Z"></path>
</symbol></defs><use id="facebook_8f397329f0a64667cb41bc62af87f73d-usage" xlink:href="#facebook_8f397329f0a64667cb41bc62af87f73d" class="sprite-symbol-usage" /><use id="github_4f317f4cadb8fc49c6dbc40258f56775-usage" xlink:href="#github_4f317f4cadb8fc49c6dbc40258f56775" class="sprite-symbol-usage" /><use id="instagram_8bbfc7f0978ec72351fbc87f9c3fd0a3-usage" xlink:href="#instagram_8bbfc7f0978ec72351fbc87f9c3fd0a3" class="sprite-symbol-usage" /><use id="linkedin_79f037cfa16f0c4f9ac7c966b062bf1c-usage" xlink:href="#linkedin_79f037cfa16f0c4f9ac7c966b062bf1c" class="sprite-symbol-usage" /><use id="mail_500d560038abca9ccf05704093d83b10-usage" xlink:href="#mail_500d560038abca9ccf05704093d83b10" class="sprite-symbol-usage" /><use id="telegram_8959b7cd1bf45269d7a024acd2401cff-usage" xlink:href="#telegram_8959b7cd1bf45269d7a024acd2401cff" class="sprite-symbol-usage" /><use id="whatsapp_9167ce48f86da3a46689650d8e7047f0-usage" xlink:href="#whatsapp_9167ce48f86da3a46689650d8e7047f0" class="sprite-symbol-usage" /></svg>