<svg xmlns="http://www.w3.org/2000/svg" xmlns:xlink="http://www.w3.org/1999/xlink"><defs><style>
    .sprite-symbol-usage {display: none;}
    .sprite-symbol-usage:target {display: inline;}
  </style><symbol viewBox="0 0 32 32" id="facebook_ad064a839538df18851b7c330d075c3e">
<title>facebook</title>
<path d="M30.996 16.091c-0.001-8.281-6.714-14.994-14.996-14.994s-14.996 6.714-14.996 14.996c0 7.455 5.44 13.639 12.566 14.8l0.086 0.012v-10.478h-3.808v-4.336h3.808v-3.302c-0.019-0.167-0.029-0.361-0.029-0.557 0-2.923 2.37-5.293 5.293-5.293 0.141 0 0.281 0.006 0.42 0.016l-0.018-0.001c1.199 0.017 2.359 0.123 3.491 0.312l-0.134-0.019v3.69h-1.892c-0.086-0.012-0.185-0.019-0.285-0.019-1.197 0-2.168 0.97-2.168 2.168 0 0.068 0.003 0.135 0.009 0.202l-0.001-0.009v2.812h4.159l-0.665 4.336h-3.494v10.478c7.213-1.174 12.653-7.359 12.654-14.814v-0z" />
</symbol><symbol viewBox="0 0 24 24" id="github_a13426102958b0b65b1679b9dc34f6c3">
<path fill-rule="evenodd" clip-rule="evenodd" d="M20.9992 5.95846C21.0087 6.565 20.9333 7.32649 20.8658 7.8807C20.8395 8.09686 20.8037 8.27676 20.7653 8.42453C21.6227 10.01 22 11.9174 22 14C22 16.4684 20.8127 18.501 18.9638 19.8871C17.1319 21.2605 14.6606 22 12 22C9.33939 22 6.86809 21.2605 5.0362 19.8871C3.18727 18.501 2 16.4684 2 14C2 11.9174 2.37732 10.01 3.23472 8.42452C3.19631 8.27676 3.16055 8.09685 3.13422 7.8807C3.06673 7.32649 2.99133 6.565 3.00081 5.95846C3.01149 5.27506 3.10082 4.5917 3.19988 3.91379C3.24569 3.60028 3.31843 3.30547 3.65883 3.11917C4.00655 2.92886 4.37274 2.99981 4.73398 3.1021C5.95247 3.44713 7.09487 3.93108 8.16803 4.51287C9.2995 4.17287 10.5783 4 12 4C13.4217 4 14.7005 4.17287 15.832 4.51287C16.9051 3.93108 18.0475 3.44713 19.266 3.1021C19.6273 2.99981 19.9935 2.92886 20.3412 3.11917C20.6816 3.30547 20.7543 3.60028 20.8001 3.91379C20.8992 4.5917 20.9885 5.27506 20.9992 5.95846ZM20 14C20 12.3128 19.6122 10 17.5 10C16.5478 10 15.6474 10.2502 14.7474 10.5004C13.8482 10.7502 12.9495 11 12 11C11.0505 11 10.1518 10.7502 9.25263 10.5004C8.35261 10.2502 7.45216 10 6.5 10C4.39379 10 4 12.3197 4 14C4 15.7636 4.82745 17.231 6.23588 18.2869C7.66135 19.3556 9.69005 20 12 20C14.3099 20 16.3386 19.3555 17.7641 18.2869C19.1726 17.231 20 15.7636 20 14ZM10 14.5C10 15.8807 9.32843 17 8.5 17C7.67157 17 7 15.8807 7 14.5C7 13.1193 7.67157 12 8.5 12C9.32843 12 10 13.1193 10 14.5ZM15.5 17C16.3284 17 17 15.8807 17 14.5C17 13.1193 16.3284 12 15.5 12C14.6716 12 14 13.1193 14 14.5C14 15.8807 14.6716 17 15.5 17Z" />
</symbol><symbol viewBox="0 0 50 50" id="instagram_b6c744edbbd685bced0fe1f69d0a0e89">    <path d="M 16 3 C 8.83 3 3 8.83 3 16 L 3 34 C 3 41.17 8.83 47 16 47 L 34 47 C 41.17 47 47 41.17 47 34 L 47 16 C 47 8.83 41.17 3 34 3 L 16 3 z M 37 11 C 38.1 11 39 11.9 39 13 C 39 14.1 38.1 15 37 15 C 35.9 15 35 14.1 35 13 C 35 11.9 35.9 11 37 11 z M 25 14 C 31.07 14 36 18.93 36 25 C 36 31.07 31.07 36 25 36 C 18.93 36 14 31.07 14 25 C 14 18.93 18.93 14 25 14 z M 25 16 C 20.04 16 16 20.04 16 25 C 16 29.96 20.04 34 25 34 C 29.96 34 34 29.96 34 25 C 34 20.04 29.96 16 25 16 z" /></symbol><symbol viewBox="0 0 50 50" id="linkedin_c20e472dbbe47e5809cf79a0b4e283e4">    <path d="M41,4H9C6.24,4,4,6.24,4,9v32c0,2.76,2.24,5,5,5h32c2.76,0,5-2.24,5-5V9C46,6.24,43.76,4,41,4z M17,20v19h-6V20H17z M11,14.47c0-1.4,1.2-2.47,3-2.47s2.93,1.07,3,2.47c0,1.4-1.12,2.53-3,2.53C12.2,17,11,15.87,11,14.47z M39,39h-6c0,0,0-9.26,0-10 c0-2-1-4-3.5-4.04h-0.08C27,24.96,26,27.02,26,29c0,0.91,0,10,0,10h-6V20h6v2.56c0,0,1.93-2.56,5.81-2.56 c3.97,0,7.19,2.73,7.19,8.26V39z" /></symbol><symbol viewBox="0 0 50 50" id="mail_c1a88f5cd60c9f42dafbb61bd55df562"><path d="M 14 4 C 8.4886661 4 4 8.4886661 4 14 L 4 36 C 4 41.511334 8.4886661 46 14 46 L 36 46 C 41.511334 46 46 41.511334 46 36 L 46 14 C 46 8.4886661 41.511334 4 36 4 L 14 4 z M 13 16 L 37 16 C 37.18 16 37.349766 16.020312 37.509766 16.070312 L 27.679688 25.890625 C 26.199688 27.370625 23.790547 27.370625 22.310547 25.890625 L 12.490234 16.070312 C 12.650234 16.020312 12.82 16 13 16 z M 11.070312 17.490234 L 18.589844 25 L 11.070312 32.509766 C 11.020312 32.349766 11 32.18 11 32 L 11 18 C 11 17.82 11.020312 17.650234 11.070312 17.490234 z M 38.929688 17.490234 C 38.979688 17.650234 39 17.82 39 18 L 39 32 C 39 32.18 38.979687 32.349766 38.929688 32.509766 L 31.400391 25 L 38.929688 17.490234 z M 20 26.410156 L 20.890625 27.310547 C 22.020625 28.440547 23.510234 29 24.990234 29 C 26.480234 29 27.959844 28.440547 29.089844 27.310547 L 29.990234 26.410156 L 37.509766 33.929688 C 37.349766 33.979688 37.18 34 37 34 L 13 34 C 12.82 34 12.650234 33.979687 12.490234 33.929688 L 20 26.410156 z" /></symbol><symbol viewBox="0 0 50 50" id="telegram_a8a26882ace3129ab5892ca008220a06"><path d="M25,2c12.703,0,23,10.297,23,23S37.703,48,25,48S2,37.703,2,25S12.297,2,25,2z M32.934,34.375	c0.423-1.298,2.405-14.234,2.65-16.783c0.074-0.772-0.17-1.285-0.648-1.514c-0.578-0.278-1.434-0.139-2.427,0.219	c-1.362,0.491-18.774,7.884-19.78,8.312c-0.954,0.405-1.856,0.847-1.856,1.487c0,0.45,0.267,0.703,1.003,0.966	c0.766,0.273,2.695,0.858,3.834,1.172c1.097,0.303,2.346,0.04,3.046-0.395c0.742-0.461,9.305-6.191,9.92-6.693	c0.614-0.502,1.104,0.141,0.602,0.644c-0.502,0.502-6.38,6.207-7.155,6.997c-0.941,0.959-0.273,1.953,0.358,2.351	c0.721,0.454,5.906,3.932,6.687,4.49c0.781,0.558,1.573,0.811,2.298,0.811C32.191,36.439,32.573,35.484,32.934,34.375z" /></symbol><symbol viewBox="0 0 50 50" id="whatsapp_5902f900874bc62c207813495b81c30e">    <path d="M25,2C12.318,2,2,12.318,2,25c0,3.96,1.023,7.854,2.963,11.29L2.037,46.73c-0.096,0.343-0.003,0.711,0.245,0.966 C2.473,47.893,2.733,48,3,48c0.08,0,0.161-0.01,0.24-0.029l10.896-2.699C17.463,47.058,21.21,48,25,48c12.682,0,23-10.318,23-23 S37.682,2,25,2z M36.57,33.116c-0.492,1.362-2.852,2.605-3.986,2.772c-1.018,0.149-2.306,0.213-3.72-0.231 c-0.857-0.27-1.957-0.628-3.366-1.229c-5.923-2.526-9.791-8.415-10.087-8.804C15.116,25.235,13,22.463,13,19.594 s1.525-4.28,2.067-4.864c0.542-0.584,1.181-0.73,1.575-0.73s0.787,0.005,1.132,0.021c0.363,0.018,0.85-0.137,1.329,1.001 c0.492,1.168,1.673,4.037,1.819,4.33c0.148,0.292,0.246,0.633,0.05,1.022c-0.196,0.389-0.294,0.632-0.59,0.973 s-0.62,0.76-0.886,1.022c-0.296,0.291-0.603,0.606-0.259,1.19c0.344,0.584,1.529,2.493,3.285,4.039 c2.255,1.986,4.158,2.602,4.748,2.894c0.59,0.292,0.935,0.243,1.279-0.146c0.344-0.39,1.476-1.703,1.869-2.286 s0.787-0.487,1.329-0.292c0.542,0.194,3.445,1.604,4.035,1.896c0.59,0.292,0.984,0.438,1.132,0.681 C37.062,30.587,37.062,31.755,36.57,33.116z" /></symbol></defs><use id="facebook_ad064a839538df18851b7c330d075c3e-usage" xlink:href="#facebook_ad064a839538df18851b7c330d075c3e" class="sprite-symbol-usage" /><use id="github_a13426102958b0b65b1679b9dc34f6c3-usage" xlink:href="#github_a13426102958b0b65b1679b9dc34f6c3" class="sprite-symbol-usage" /><use id="instagram_b6c744edbbd685bced0fe1f69d0a0e89-usage" xlink:href="#instagram_b6c744edbbd685bced0fe1f69d0a0e89" class="sprite-symbol-usage" /><use id="linkedin_c20e472dbbe47e5809cf79a0b4e283e4-usage" xlink:href="#linkedin_c20e472dbbe47e5809cf79a0b4e283e4" class="sprite-symbol-usage" /><use id="mail_c1a88f5cd60c9f42dafbb61bd55df562-usage" xlink:href="#mail_c1a88f5cd60c9f42dafbb61bd55df562" class="sprite-symbol-usage" /><use id="telegram_a8a26882ace3129ab5892ca008220a06-usage" xlink:href="#telegram_a8a26882ace3129ab5892ca008220a06" class="sprite-symbol-usage" /><use id="whatsapp_5902f900874bc62c207813495b81c30e-usage" xlink:href="#whatsapp_5902f900874bc62c207813495b81c30e" class="sprite-symbol-usage" /></svg>